<svg width="1200" height="900" viewBox="0 0 1200 900" fill="none" xmlns="http://www.w3.org/2000/svg">
  <rect width="1200" height="900" fill="#F7F3EC"/>
  <rect width="1200" height="900" fill="url(#mist)"/>
  <rect x="78" y="76" width="1044" height="748" rx="56" fill="#F9F7F2" stroke="#D7D0C4" stroke-width="4"/>
  <rect x="148" y="144" width="206" height="38" rx="19" fill="#EEF2F1"/>
  <rect x="148" y="238" width="634" height="74" rx="22" fill="#153B52" fill-opacity="0.12"/>
  <rect x="148" y="352" width="522" height="18" rx="9" fill="#1F2A30" fill-opacity="0.08"/>
  <rect x="148" y="390" width="610" height="18" rx="9" fill="#1F2A30" fill-opacity="0.08"/>
  <g filter="url(#shadow)">
    <rect x="148" y="486" width="904" height="214" rx="34" fill="url(#deepCard)"/>
    <rect x="190" y="530" width="236" height="18" rx="9" fill="#F7F3EC" fill-opacity="0.72"/>
    <rect x="190" y="574" width="302" height="42" rx="21" fill="#C96E57"/>
    <rect x="850" y="538" width="138" height="110" rx="24" fill="#F7F3EC" fill-opacity="0.14"/>
    <path d="M876 602L913 566L949 602L986 566" stroke="#F7F3EC" stroke-width="12" stroke-linecap="round" stroke-linejoin="round"/>
  </g>
  <defs>
    <radialGradient id="mist" cx="0" cy="0" r="1" gradientUnits="userSpaceOnUse" gradientTransform="translate(950 173) rotate(130.703) scale(592.998 747.195)">
      <stop stop-color="#EEF2F1"/>
      <stop offset="1" stop-color="#F7F3EC" stop-opacity="0"/>
    </radialGradient>
    <linearGradient id="deepCard" x1="148" y1="486" x2="1052" y2="700" gradientUnits="userSpaceOnUse">
      <stop stop-color="#153B52"/>
      <stop offset="1" stop-color="#102D3F"/>
    </linearGradient>
    <filter id="shadow" x="116" y="450" width="968" height="278" filterUnits="userSpaceOnUse" color-interpolation-filters="sRGB">
      <feFlood flood-opacity="0" result="BackgroundImageFix"/>
      <feColorMatrix in="SourceAlpha" type="matrix" values="0 0 0 0 0 0 0 0 0 0 0 0 0 0 0 0 0 0 127 0" result="hardAlpha"/>
      <feOffset dy="14"/>
      <feGaussianBlur stdDeviation="16"/>
      <feColorMatrix type="matrix" values="0 0 0 0 0.0627451 0 0 0 0 0.176471 0 0 0 0 0.247059 0 0 0 0.16 0"/>
      <feBlend mode="normal" in2="BackgroundImageFix" result="effect1_dropShadow_11_2"/>
      <feBlend mode="normal" in="SourceGraphic" in2="effect1_dropShadow_11_2" result="shape"/>
    </filter>
  </defs>
</svg>
