<svg width="1200" height="900" viewBox="0 0 1200 900" fill="none" xmlns="http://www.w3.org/2000/svg">
  <rect width="1200" height="900" fill="#F7F3EC"/>
  <rect width="1200" height="900" fill="url(#wash)"/>
  <rect x="74" y="74" width="1052" height="752" rx="54" fill="#F9F6F1" stroke="#D7D0C4" stroke-width="4"/>
  <rect x="130" y="132" width="940" height="426" rx="34" fill="url(#sea)"/>
  <path d="M130 470C212 438 303 412 403 412C562 412 632 488 773 488C902 488 995 423 1070 385V592H130V470Z" fill="url(#shore)"/>
  <rect x="164" y="618" width="248" height="26" rx="13" fill="#153B52" fill-opacity="0.12"/>
  <rect x="164" y="664" width="512" height="18" rx="9" fill="#1F2A30" fill-opacity="0.1"/>
  <rect x="164" y="700" width="428" height="18" rx="9" fill="#1F2A30" fill-opacity="0.08"/>
  <g filter="url(#shadow)">
    <rect x="842" y="600" width="180" height="136" rx="28" fill="#EEF2F1"/>
    <rect x="876" y="636" width="112" height="10" rx="5" fill="#153B52" fill-opacity="0.2"/>
    <rect x="876" y="666" width="88" height="10" rx="5" fill="#153B52" fill-opacity="0.12"/>
    <path d="M901 575C936 535 990 536 1023 575" stroke="#C96E57" stroke-width="12" stroke-linecap="round"/>
  </g>
  <defs>
    <linearGradient id="sea" x1="130" y1="132" x2="1029" y2="540" gradientUnits="userSpaceOnUse">
      <stop stop-color="#163D55"/>
      <stop offset="0.55" stop-color="#245470"/>
      <stop offset="1" stop-color="#8AA7B5"/>
    </linearGradient>
    <linearGradient id="shore" x1="600" y1="412" x2="600" y2="592" gradientUnits="userSpaceOnUse">
      <stop stop-color="#EEF2F1" stop-opacity="0.28"/>
      <stop offset="1" stop-color="#E9DFCF"/>
    </linearGradient>
    <radialGradient id="wash" cx="0" cy="0" r="1" gradientUnits="userSpaceOnUse" gradientTransform="translate(955 192) rotate(127.128) scale(619.62 788.876)">
      <stop stop-color="#EEF2F1" stop-opacity="0.88"/>
      <stop offset="1" stop-color="#F7F3EC" stop-opacity="0"/>
    </radialGradient>
    <filter id="shadow" x="810" y="551" width="244" height="217" filterUnits="userSpaceOnUse" color-interpolation-filters="sRGB">
      <feFlood flood-opacity="0" result="BackgroundImageFix"/>
      <feColorMatrix in="SourceAlpha" type="matrix" values="0 0 0 0 0 0 0 0 0 0 0 0 0 0 0 0 0 0 127 0" result="hardAlpha"/>
      <feOffset dy="12"/>
      <feGaussianBlur stdDeviation="16"/>
      <feColorMatrix type="matrix" values="0 0 0 0 0.0627451 0 0 0 0 0.176471 0 0 0 0 0.247059 0 0 0 0.12 0"/>
      <feBlend mode="normal" in2="BackgroundImageFix" result="effect1_dropShadow_10_2"/>
      <feBlend mode="normal" in="SourceGraphic" in2="effect1_dropShadow_10_2" result="shape"/>
    </filter>
  </defs>
</svg>
